<svg id="Layer_1" data-name="Layer 1" xmlns="http://www.w3.org/2000/svg" viewBox="0 0 983.46 442.83"><defs><style>.cls-1{fill:#fff;}</style></defs><path class="cls-1" d="M608.08,379.6c8.24-.79,16.15-1.83,24.1-2.25,6.5-.34,13.14-.63,19.56.26,10.19,1.4,13.47,8.88,8.62,18-3.67,6.91-9.16,12.27-15.13,17.13-8.17,6.65-16.46,13.15-24.77,19.62a4.54,4.54,0,0,0-1.92,4.92c2.79,18.6,5.63,37.18,8,55.84a63.76,63.76,0,0,1-.42,16.78c-1.32,9.11-6.43,13.61-15.58,14.52-7.63.75-15.07-.63-22.45-2.48-18.08-4.51-34.88-12.26-51.31-20.83-3.22-1.68-5.37-1.75-8.37.57-9.39,7.21-18.91,14.32-28.73,20.95-8.15,5.5-16.93,10-27,10.88a21.07,21.07,0,0,1-4,0c-6.8-.62-10.32-4.38-9.12-11a73.3,73.3,0,0,1,5.24-17.85c8-17.35,16.12-34.67,25-51.58q21.83-41.52,44.8-82.44c7.36-13,15.83-25.51,24.3-37.89,2.75-4,6.8-7.38,10.82-10.27,6-4.36,11.81-3.46,17.14,1.71A44.33,44.33,0,0,1,598,343c3.44,10.9,6.2,22,9.24,33,.28,1.07.49,2.16.82,3.57m-10.15,8.67c-22.63,2.36-44.5,4.61-66.35,7a4.45,4.45,0,0,0-2.71,2.36c-11.72,23.17-23.33,46.39-35.05,69.55-1.13,2.23-.79,3.45,1.32,4.64q16.68,9.42,33.27,19c1.75,1,2.86.69,4.33-.43,7-5.33,14.12-10.48,21.09-15.83q25.2-19.32,50.27-38.79c1-.79,2.1-2.52,1.94-3.62-2-13.95-4.26-27.87-6.54-41.79-.13-.86-1.12-1.57-1.57-2.14m9.5,53.11L537.7,495a9.63,9.63,0,0,0,1.33,1c12.59,6.35,25.25,12.66,38.94,16.25a152.18,152.18,0,0,0,23.78,3.9c5.34.53,9.21-2.44,10.38-7.65a51.18,51.18,0,0,0,1.49-14.81c-.93-12.61-2.51-25.19-3.94-37.77-.55-4.69-1.44-9.36-2.25-14.59m-73.19-54,63.63-6.92a13.87,13.87,0,0,0-.12-2.25c-2.41-10.11-4.59-20.3-7.41-30.3a52.49,52.49,0,0,0-5.88-12.73c-4-6.59-9.38-7.44-15-2.15a66.1,66.1,0,0,0-10.25,12.49c-7.41,11.74-14.38,23.76-21.5,35.68-1.14,1.89-2.18,3.82-3.51,6.18m-43.48,87.07a7,7,0,0,0-.89,1.21c-5,11.52-10.11,23-15,34.57a24.1,24.1,0,0,0-1.5,7.47c-.32,4.55,2.05,6.73,6.4,5.52a43.89,43.89,0,0,0,11.58-4.62c11.06-7,21.86-14.35,32.76-21.57.56-.37,1.18-.68,2-1.13l-35.34-21.45m126-47.3c2.14-1.65,3.83-2.89,5.43-4.23,8.71-7.24,17.49-14.38,26-21.82a27.74,27.74,0,0,0,5.63-7.55c2.05-3.7.71-6.58-3.39-7.75a19.32,19.32,0,0,0-6-.77c-7.44.32-14.87.82-22.3,1.33-4,.27-8.05.68-12.42,1.06,2.37,13.3,4.66,26.18,7.07,39.73" transform="translate(-48.27 -318.59)"/><path class="cls-1" d="M558.49,318.59c-11,8-17.38,19-24,29.62C513,382.84,493,418.4,474,454.5c-8.83,16.81-17.1,33.93-25.37,51a99.94,99.94,0,0,0-5.39,15c-1.59,5.36-1.86,10.59,4.45,13.75l-.43.65a61.29,61.29,0,0,1-7.95-1.3c-4.83-1.41-7.83-5-7.34-10s1.31-10.3,3.5-14.72C444,491.75,453,474.89,462,458c1.4-2.63,1.22-3.85-1.22-5.62-9.51-6.91-18.9-14-26.69-22.94-3.89-4.45-7.2-9.17-7-15.51a13.46,13.46,0,0,1,6.72-11.67c5.27-3.32,11.29-4.11,17.24-5,15.56-2.3,31.16-4.41,46.71-6.79a6.57,6.57,0,0,0,3.77-2.94c8.5-13.6,16.58-27.47,25.38-40.88a197.55,197.55,0,0,1,16.38-21c3.66-4.23,8.65-6.76,15.21-7.16M466,451.42c9.78-17.95,19.13-35.1,28.63-52.49a33.82,33.82,0,0,0-3.53,0c-12.06,1.51-24.15,2.94-36.19,4.61a86.22,86.22,0,0,0-14.39,2.95c-7,2.22-8.84,7.12-5.83,13.75a21,21,0,0,0,3.18,5.21,130.22,130.22,0,0,0,10.47,11.17c5.58,5.05,11.52,9.68,17.66,14.79" transform="translate(-48.27 -318.59)"/><path class="cls-1" d="M48.27,662.82a4.91,4.91,0,1,1,9.82,0v36.27a4.91,4.91,0,1,1-9.82,0Z" transform="translate(-48.27 -318.59)"/><path class="cls-1" d="M82,663a4.92,4.92,0,0,1,4.91-5h1c2.36,0,3.76,1.17,5.1,2.93L112,686.22V662.76a4.85,4.85,0,1,1,9.7,0V699a4.92,4.92,0,0,1-4.91,5h-.32c-2.36,0-3.76-1.17-5.1-2.93L91.7,674.78v24.38a4.85,4.85,0,1,1-9.7,0V663Z" transform="translate(-48.27 -318.59)"/><path class="cls-1" d="M162.55,694.67c8,0,13.45-5.52,13.45-13.58V681c0-8.06-5.42-13.72-13.45-13.72H155v27.43Zm-17.41-31.46a4.92,4.92,0,0,1,4.91-5h12.5c14,0,23.72,9.81,23.72,22.62V681c0,12.81-9.69,22.75-23.72,22.75h-12.5a4.92,4.92,0,0,1-4.91-5Z" transform="translate(-48.27 -318.59)"/><path class="cls-1" d="M207.76,698.7V663.21a4.92,4.92,0,0,1,4.91-5h24.74a4.45,4.45,0,0,1,4.4,4.48,4.4,4.4,0,0,1-4.4,4.42h-19.9v9.23h17a4.45,4.45,0,0,1,4.4,4.49,4.4,4.4,0,0,1-4.4,4.42h-17v9.55h20.21a4.45,4.45,0,0,1,4.4,4.49,4.4,4.4,0,0,1-4.4,4.42H212.66a4.92,4.92,0,0,1-4.9-5" transform="translate(-48.27 -318.59)"/><path class="cls-1" d="M280.84,681.15c4.91,0,7.78-3,7.78-6.89v-.13c0-4.48-3.06-6.89-8-6.89h-7.59v13.91Zm-17.6-17.94a4.92,4.92,0,0,1,4.91-5h13.33c10.65,0,17.09,6.43,17.09,15.73v.13c0,10.53-8,16-18.05,16h-7.46v9a4.91,4.91,0,1,1-9.82,0Z" transform="translate(-48.27 -318.59)"/><path class="cls-1" d="M318.59,698.7V663.21a4.92,4.92,0,0,1,4.91-5h24.74a4.45,4.45,0,0,1,4.4,4.48,4.4,4.4,0,0,1-4.4,4.42h-19.9v9.23h17a4.45,4.45,0,0,1,4.4,4.49,4.4,4.4,0,0,1-4.4,4.42h-17v9.55h20.21a4.45,4.45,0,0,1,4.4,4.49,4.4,4.4,0,0,1-4.4,4.42H323.5a4.92,4.92,0,0,1-4.91-5" transform="translate(-48.27 -318.59)"/><path class="cls-1" d="M374.07,663a4.92,4.92,0,0,1,4.91-5h1c2.36,0,3.76,1.17,5.1,2.93L404,686.22V662.76a4.85,4.85,0,1,1,9.7,0V699a4.92,4.92,0,0,1-4.91,5h-.32c-2.36,0-3.76-1.17-5.1-2.93l-19.64-26.26v24.38a4.85,4.85,0,1,1-9.7,0Z" transform="translate(-48.27 -318.59)"/><path class="cls-1" d="M454.61,694.67c8,0,13.45-5.52,13.45-13.58V681c0-8.06-5.42-13.72-13.45-13.72H447v27.43Zm-17.4-31.46a4.92,4.92,0,0,1,4.91-5h12.5c14,0,23.72,9.81,23.72,22.62V681c0,12.81-9.69,22.75-23.72,22.75h-12.5a4.92,4.92,0,0,1-4.91-5Z" transform="translate(-48.27 -318.59)"/><path class="cls-1" d="M499.83,698.7V663.21a4.92,4.92,0,0,1,4.91-5h24.74a4.45,4.45,0,0,1,4.4,4.48,4.4,4.4,0,0,1-4.4,4.42h-19.9v9.23h17a4.45,4.45,0,0,1,4.4,4.49,4.4,4.4,0,0,1-4.4,4.42h-17v9.55h20.21a4.45,4.45,0,0,1,4.4,4.49,4.4,4.4,0,0,1-4.4,4.42H504.73a4.91,4.91,0,0,1-4.9-5" transform="translate(-48.27 -318.59)"/><path class="cls-1" d="M555.31,663a4.92,4.92,0,0,1,4.91-5h1c2.36,0,3.76,1.17,5.1,2.93l18.94,25.35V662.76a4.85,4.85,0,1,1,9.7,0V699a4.92,4.92,0,0,1-4.91,5h-.32c-2.36,0-3.76-1.17-5.1-2.93L565,674.78v24.38a4.85,4.85,0,1,1-9.7,0V663Z" transform="translate(-48.27 -318.59)"/><path class="cls-1" d="M616.46,681.09V681c0-12.93,9.57-23.53,23.28-23.53,6.69,0,11.22,1.82,14.92,4.61a5,5,0,0,1,1.91,4,4.84,4.84,0,0,1-4.85,4.88,5.11,5.11,0,0,1-2.93-1,14.5,14.5,0,0,0-9.12-3.25c-7.52,0-12.94,6.37-12.94,14.17V681c0,7.8,5.29,14.3,12.94,14.3a14.12,14.12,0,0,0,9.69-3.58,4.52,4.52,0,0,1,2.93-1.11,4.64,4.64,0,0,1,4.59,4.62,4.71,4.71,0,0,1-1.66,3.57c-4,3.58-8.73,5.72-15.88,5.72-13.12,0-22.88-10.33-22.88-23.39" transform="translate(-48.27 -318.59)"/><path class="cls-1" d="M678.25,698.7V663.21a4.92,4.92,0,0,1,4.91-5H707.9a4.45,4.45,0,0,1,4.4,4.48,4.4,4.4,0,0,1-4.4,4.42H688v9.23h17a4.45,4.45,0,0,1,4.4,4.49,4.4,4.4,0,0,1-4.4,4.42H688v9.55h20.21a4.45,4.45,0,0,1,4.4,4.49,4.4,4.4,0,0,1-4.4,4.42H683.15a4.92,4.92,0,0,1-4.9-5" transform="translate(-48.27 -318.59)"/><path class="cls-1" d="M766.57,660.48a2.52,2.52,0,1,1,5,0v17.94h25.76V660.48a2.52,2.52,0,1,1,5,0v40.95a2.52,2.52,0,1,1-5,0v-18.2H771.61v18.2a2.52,2.52,0,1,1-5,0Z" transform="translate(-48.27 -318.59)"/><path class="cls-1" d="M866.11,681.09V681c0-10.34-7.4-18.79-17.6-18.79S831,670.49,831,680.83V681c0,10.33,7.4,18.78,17.6,18.78s17.47-8.32,17.47-18.65m-40.3,0V681c0-12.55,9.24-23.53,22.83-23.53s22.7,10.85,22.7,23.4V681c0,12.54-9.24,23.53-22.83,23.53s-22.7-10.86-22.7-23.4" transform="translate(-48.27 -318.59)"/><path class="cls-1" d="M903.49,663h-13a2.36,2.36,0,0,1-2.36-2.34,2.41,2.41,0,0,1,2.36-2.4h31a2.41,2.41,0,0,1,2.36,2.4,2.36,2.36,0,0,1-2.36,2.34H908.59v38.48a2.55,2.55,0,1,1-5.1,0Z" transform="translate(-48.27 -318.59)"/><path class="cls-1" d="M945.77,701.11v-40.3a2.57,2.57,0,0,1,2.49-2.6H976a2.34,2.34,0,0,1,0,4.68H950.8v15.53h22.32a2.34,2.34,0,0,1,2.29,2.34,2.31,2.31,0,0,1-2.29,2.34H950.8V699h25.51a2.34,2.34,0,0,1,0,4.68H948.25a2.57,2.57,0,0,1-2.48-2.6" transform="translate(-48.27 -318.59)"/><path class="cls-1" d="M1001.24,660.48a2.52,2.52,0,1,1,5,0V699h23.15a2.37,2.37,0,0,1,2.3,2.41,2.31,2.31,0,0,1-2.3,2.34h-25.7a2.57,2.57,0,0,1-2.49-2.6V660.48Z" transform="translate(-48.27 -318.59)"/><path class="cls-1" d="M285.09,758.74a1,1,0,0,1-.41-.83,1,1,0,0,1,1-1.08,1,1,0,0,1,.66.25,8.58,8.58,0,0,0,6,2.31c2.56,0,4.25-1.39,4.25-3.31V756c0-1.81-1-2.84-5-3.7-4.39-1-6.41-2.42-6.41-5.62v-.06c0-3.06,2.65-5.31,6.27-5.31a9.59,9.59,0,0,1,6.08,1.92,1.13,1.13,0,0,1,.46.89,1,1,0,0,1-1,1.06,1,1,0,0,1-.63-.19,7.86,7.86,0,0,0-4.94-1.7c-2.48,0-4.06,1.39-4.06,3.14v0c0,1.84,1,2.87,5.18,3.78s6.22,2.53,6.22,5.51v.06c0,3.34-2.73,5.51-6.52,5.51a11,11,0,0,1-7.22-2.63" transform="translate(-48.27 -318.59)"/><path class="cls-1" d="M325.84,742.59a1.08,1.08,0,1,1,2.15,0v17.52a1.08,1.08,0,1,1-2.15,0Z" transform="translate(-48.27 -318.59)"/><path class="cls-1" d="M356,742.59a1.08,1.08,0,1,1,2.15,0v7.68h11v-7.68a1.08,1.08,0,1,1,2.15,0v17.52a1.08,1.08,0,1,1-2.15,0v-7.79h-11v7.79a1.08,1.08,0,1,1-2.15,0Z" transform="translate(-48.27 -318.59)"/><path class="cls-1" d="M411.49,753.93,407.1,744l-4.39,9.95Zm-13.5,5.7,7.75-17.27a1.4,1.4,0,0,1,1.36-1h.11a1.38,1.38,0,0,1,1.34,1l7.75,17.24a1.54,1.54,0,0,1,.14.56,1,1,0,0,1-1,1.06,1.17,1.17,0,0,1-1.06-.81l-2-4.48H401.88l-2,4.53a1.09,1.09,0,0,1-1,.75,1,1,0,0,1-1-1,1,1,0,0,1,.12-.58" transform="translate(-48.27 -318.59)"/><path class="cls-1" d="M443,742.61a1.09,1.09,0,0,1,1.06-1.08h.3a1.31,1.31,0,0,1,1.09.64L457,757.24V742.56a1.05,1.05,0,1,1,2.1,0v17.58a1,1,0,0,1-1,1H458a1.49,1.49,0,0,1-1.12-.67l-11.83-15.43v15.07a1.05,1.05,0,1,1-2.1,0Z" transform="translate(-48.27 -318.59)"/><path class="cls-1" d="M503.34,751.4v0c0-4.42-3.16-8-7.53-8s-7.47,3.56-7.47,8v.06c0,4.42,3.16,8,7.53,8s7.47-3.57,7.47-8m-17.24,0v0a9.78,9.78,0,0,1,9.76-10.07c5.81,0,9.71,4.64,9.71,10v.06a9.74,9.74,0,1,1-19.47,0" transform="translate(-48.27 -318.59)"/><path class="cls-1" d="M532.25,752.93V742.58a1.08,1.08,0,1,1,2.15,0v10.21c0,4.2,2.21,6.56,5.84,6.56s5.75-2.17,5.75-6.42V742.58a1.08,1.08,0,1,1,2.15,0v10.18c0,5.67-3.19,8.62-8,8.62s-7.93-2.94-7.93-8.45" transform="translate(-48.27 -318.59)"/><path class="cls-1" d="M575.68,742.59a1.08,1.08,0,1,1,2.15,0v10.65l10.88-11.37a1.23,1.23,0,0,1,.85-.39,1.09,1.09,0,0,1,1,1.08,1.08,1.08,0,0,1-.36.78l-6.76,6.84,7.25,9.12a1.22,1.22,0,0,1,.3.8,1.12,1.12,0,0,1-1.09,1.11,1,1,0,0,1-.87-.5l-7.12-9-4.12,4.2v4.23a1.08,1.08,0,1,1-2.15,0V742.59Z" transform="translate(-48.27 -318.59)"/><path class="cls-1" d="M623,760.38l-7.36-17.33a1.08,1.08,0,0,1-.11-.5,1.11,1.11,0,0,1,1.09-1.08,1.21,1.21,0,0,1,1.12.83l6.6,16.13L631,742.24a1.27,1.27,0,0,1,1.06-.78,1.07,1.07,0,0,1,1.06,1.06,1.29,1.29,0,0,1-.08.45l-7.39,17.41a1.31,1.31,0,0,1-1.25.92h-.11a1.29,1.29,0,0,1-1.26-.92" transform="translate(-48.27 -318.59)"/><path class="cls-1" d="M659.78,742.59a1.08,1.08,0,1,1,2.15,0v17.52a1.08,1.08,0,1,1-2.15,0Z" transform="translate(-48.27 -318.59)"/><path class="cls-1" d="M690,742.59a1.08,1.08,0,1,1,2.15,0v16.46H702a1,1,0,0,1,1,1,1,1,0,0,1-1,1H691A1.1,1.1,0,0,1,690,760V742.59Z" transform="translate(-48.27 -318.59)"/><path class="cls-1" d="M729.25,742.59a1.08,1.08,0,1,1,2.15,0v16.46h9.9a1,1,0,0,1,1,1,1,1,0,0,1-1,1h-11a1.1,1.1,0,0,1-1.06-1.11V742.59Z" transform="translate(-48.27 -318.59)"/><path class="cls-1" d="M768.56,760V742.73a1.1,1.1,0,0,1,1.06-1.11h11.86a1,1,0,0,1,0,2H770.71v6.65h9.55a1,1,0,0,1,1,1,1,1,0,0,1-1,1h-9.55v6.81h10.91a1,1,0,0,1,1,1,1,1,0,0,1-1,1h-12a1.1,1.1,0,0,1-1.06-1.11" transform="translate(-48.27 -318.59)"/></svg>