<?xml version="1.0" encoding="utf-8"?>
<!-- Generator: Adobe Illustrator 25.4.1, SVG Export Plug-In . SVG Version: 6.00 Build 0)  -->
<svg version="1.1" id="Layer_1" xmlns="http://www.w3.org/2000/svg" xmlns:xlink="http://www.w3.org/1999/xlink" x="0px" y="0px"
	 viewBox="0 0 983.46 442.83" style="enable-background:new 0 0 983.46 442.83;" xml:space="preserve">
<g>
	<path style="fill:#29388F;" d="M559.81,61.01c8.24-0.79,16.15-1.83,24.1-2.25c6.5-0.34,13.14-0.63,19.56,0.26
		c10.19,1.4,13.47,8.88,8.62,18.02c-3.67,6.91-9.16,12.27-15.13,17.13c-8.17,6.65-16.46,13.15-24.77,19.62
		c-1.75,1.35-2.25,2.68-1.92,4.92c2.79,18.6,5.63,37.18,7.97,55.84c0.69,5.5,0.37,11.27-0.42,16.78
		c-1.32,9.11-6.43,13.61-15.58,14.52c-7.63,0.75-15.07-0.63-22.45-2.48c-18.08-4.51-34.88-12.26-51.31-20.83
		c-3.22-1.68-5.37-1.75-8.37,0.57c-9.39,7.21-18.91,14.32-28.73,20.95c-8.15,5.5-16.93,9.98-27.03,10.88
		c-1.32,0.12-2.66,0.16-3.97,0.03c-6.8-0.62-10.32-4.38-9.12-11.04c1.08-6.08,2.66-12.27,5.24-17.85
		c7.99-17.35,16.12-34.67,25.01-51.58c14.55-27.68,29.45-55.18,44.8-82.44c7.36-13.05,15.83-25.51,24.3-37.89
		c2.75-4.02,6.8-7.38,10.82-10.27c6.05-4.36,11.81-3.46,17.14,1.71c5.44,5.27,8.96,11.8,11.18,18.81c3.44,10.9,6.2,22,9.24,33.02
		C559.27,58.51,559.48,59.6,559.81,61.01 M549.66,69.68c-22.63,2.36-44.5,4.61-66.35,7.02c-0.99,0.1-2.2,1.34-2.71,2.36
		c-11.72,23.17-23.33,46.39-35.05,69.55c-1.13,2.23-0.79,3.45,1.32,4.64c11.12,6.28,22.23,12.61,33.27,19.03
		c1.75,1.02,2.86,0.69,4.33-0.43c6.99-5.33,14.12-10.48,21.09-15.83c16.8-12.88,33.56-25.8,50.27-38.79
		c1.01-0.79,2.1-2.52,1.94-3.62c-2.03-13.95-4.26-27.87-6.54-41.79C551.1,70.96,550.11,70.25,549.66,69.68 M559.16,122.79
		c-23.54,18.1-46.54,35.79-69.73,53.63c0.71,0.56,0.98,0.88,1.33,1.04c12.59,6.35,25.25,12.66,38.94,16.25
		c7.74,2.03,15.79,3.12,23.78,3.9c5.34,0.53,9.21-2.44,10.38-7.65c1.09-4.81,1.85-9.92,1.49-14.81
		c-0.93-12.61-2.51-25.19-3.94-37.77C560.86,132.69,559.97,128.02,559.16,122.79 M485.97,68.81c21.55-2.35,42.51-4.62,63.63-6.92
		c-0.04-0.88,0.03-1.59-0.12-2.25c-2.41-10.11-4.59-20.3-7.41-30.3c-1.26-4.46-3.46-8.75-5.88-12.73
		c-4.02-6.59-9.38-7.44-14.96-2.15c-3.88,3.68-7.39,7.97-10.25,12.49c-7.41,11.74-14.38,23.76-21.5,35.68
		C488.34,64.52,487.3,66.45,485.97,68.81 M442.49,155.88c-0.31,0.42-0.7,0.77-0.89,1.21c-5.02,11.52-10.11,22.99-14.97,34.57
		c-0.96,2.3-1.32,4.95-1.5,7.47c-0.32,4.55,2.05,6.73,6.4,5.52c3.99-1.1,8.11-2.45,11.58-4.62c11.06-6.96,21.86-14.35,32.76-21.57
		c0.56-0.37,1.18-0.68,1.96-1.13C465.62,169.92,454.12,162.94,442.49,155.88 M568.46,108.58c2.14-1.65,3.83-2.89,5.43-4.23
		c8.71-7.24,17.49-14.38,26.02-21.82c2.32-2.02,4.12-4.82,5.63-7.55c2.05-3.7,0.71-6.58-3.39-7.75c-1.93-0.55-4.04-0.86-6.04-0.77
		c-7.44,0.32-14.87,0.82-22.3,1.33c-4.02,0.27-8.05,0.68-12.42,1.06C563.76,82.15,566.05,95.03,568.46,108.58"/>
	<path style="fill:#29388F;" d="M510.22,0c-11.05,8.02-17.38,18.98-23.99,29.62c-21.55,34.63-41.48,70.19-60.46,106.29
		c-8.83,16.81-17.1,33.93-25.37,51.03c-2.3,4.75-3.87,9.89-5.39,14.97c-1.59,5.36-1.86,10.59,4.45,13.75
		c-0.14,0.22-0.29,0.43-0.43,0.65c-2.66-0.41-5.4-0.55-7.95-1.3c-4.83-1.41-7.83-5.01-7.34-10.02c0.5-4.99,1.31-10.3,3.5-14.72
		c8.48-17.11,17.49-33.97,26.49-50.82c1.4-2.63,1.22-3.85-1.22-5.62c-9.51-6.91-18.9-14.01-26.69-22.94
		c-3.89-4.45-7.2-9.17-7.01-15.51c0.15-5.13,2.41-8.96,6.72-11.67c5.27-3.32,11.29-4.11,17.24-4.98c15.56-2.3,31.16-4.41,46.71-6.79
		c1.39-0.22,2.96-1.65,3.77-2.94c8.5-13.6,16.58-27.47,25.38-40.88c4.84-7.39,10.57-14.27,16.38-20.96
		C498.67,2.93,503.66,0.4,510.22,0 M417.72,132.83c9.78-17.95,19.13-35.1,28.63-52.49c-1.51,0-2.53-0.11-3.53,0.01
		c-12.06,1.51-24.15,2.94-36.19,4.61c-4.85,0.67-9.75,1.47-14.39,2.95c-6.96,2.22-8.84,7.12-5.83,13.75
		c0.84,1.85,1.85,3.7,3.18,5.21c3.35,3.85,6.7,7.75,10.47,11.17C405.64,123.09,411.58,127.72,417.72,132.83"/>
	<path style="fill:#29388F;" d="M0,344.23c0-2.8,2.17-5,4.91-5c2.74,0,4.91,2.21,4.91,5v36.27c0,2.79-2.17,5-4.91,5
		c-2.74,0-4.91-2.21-4.91-5V344.23z"/>
	<path style="fill:#29388F;" d="M33.74,344.36c0-2.8,2.17-5.01,4.91-5.01h1.02c2.36,0,3.76,1.17,5.1,2.93l18.94,25.35v-23.46
		c0-2.73,2.17-4.94,4.85-4.94c2.68,0,4.85,2.21,4.85,4.94v36.2c0,2.8-2.17,5.01-4.91,5.01h-0.32c-2.36,0-3.76-1.17-5.1-2.93
		l-19.65-26.26v24.38c0,2.73-2.17,4.94-4.85,4.94s-4.85-2.21-4.85-4.94v-36.21H33.74z"/>
	<path style="fill:#29388F;" d="M114.28,376.08c8.03,0,13.45-5.52,13.45-13.58v-0.13c0-8.06-5.42-13.72-13.45-13.72h-7.59v27.43
		H114.28z M96.87,344.62c0-2.79,2.17-5,4.91-5h12.5c14.03,0,23.72,9.81,23.72,22.62v0.13c0,12.81-9.69,22.75-23.72,22.75h-12.5
		c-2.74,0-4.91-2.21-4.91-5.01V344.62z"/>
	<path style="fill:#29388F;" d="M159.49,380.11v-35.49c0-2.79,2.17-5,4.91-5h24.74c2.42,0,4.4,2.01,4.4,4.48s-1.98,4.42-4.4,4.42
		h-19.9v9.23h17.03c2.42,0,4.4,2.01,4.4,4.49c0,2.47-1.98,4.42-4.4,4.42h-17.03v9.55h20.21c2.42,0,4.4,2.01,4.4,4.49
		c0,2.47-1.98,4.42-4.4,4.42h-25.06C161.66,385.12,159.49,382.91,159.49,380.11"/>
	<path style="fill:#29388F;" d="M232.57,362.56c4.91,0,7.78-2.99,7.78-6.89v-0.13c0-4.48-3.06-6.89-7.97-6.89h-7.59v13.91
		L232.57,362.56L232.57,362.56z M214.97,344.62c0-2.79,2.17-5,4.91-5h13.33c10.65,0,17.09,6.43,17.09,15.73v0.13
		c0,10.53-8.03,15.99-18.05,15.99h-7.46v9.04c0,2.79-2.17,5-4.91,5s-4.91-2.21-4.91-5V344.62z"/>
	<path style="fill:#29388F;" d="M270.32,380.11v-35.49c0-2.79,2.17-5,4.91-5h24.74c2.42,0,4.4,2.01,4.4,4.48s-1.98,4.42-4.4,4.42
		h-19.9v9.23h17.03c2.42,0,4.4,2.01,4.4,4.49c0,2.47-1.98,4.42-4.4,4.42h-17.03v9.55h20.21c2.42,0,4.4,2.01,4.4,4.49
		c0,2.47-1.98,4.42-4.4,4.42h-25.05C272.49,385.12,270.32,382.91,270.32,380.11"/>
	<path style="fill:#29388F;" d="M325.8,344.36c0-2.8,2.17-5.01,4.91-5.01h1.02c2.36,0,3.76,1.17,5.1,2.93l18.94,25.35v-23.46
		c0-2.73,2.17-4.94,4.85-4.94s4.85,2.21,4.85,4.94v36.2c0,2.8-2.17,5.01-4.91,5.01h-0.32c-2.36,0-3.76-1.17-5.1-2.93l-19.64-26.26
		v24.38c0,2.73-2.17,4.94-4.85,4.94s-4.85-2.21-4.85-4.94V344.36z"/>
	<path style="fill:#29388F;" d="M406.34,376.08c8.04,0,13.45-5.52,13.45-13.58v-0.13c0-8.06-5.42-13.72-13.45-13.72h-7.59v27.43
		H406.34z M388.94,344.62c0-2.79,2.17-5,4.91-5h12.5c14.03,0,23.72,9.81,23.72,22.62v0.13c0,12.81-9.69,22.75-23.72,22.75h-12.5
		c-2.74,0-4.91-2.21-4.91-5.01V344.62z"/>
	<path style="fill:#29388F;" d="M451.56,380.11v-35.49c0-2.79,2.17-5,4.91-5h24.74c2.42,0,4.4,2.01,4.4,4.48s-1.98,4.42-4.4,4.42
		h-19.9v9.23h17.03c2.42,0,4.4,2.01,4.4,4.49c0,2.47-1.98,4.42-4.4,4.42h-17.03v9.55h20.21c2.42,0,4.4,2.01,4.4,4.49
		c0,2.47-1.98,4.42-4.4,4.42h-25.06C453.72,385.12,451.56,382.91,451.56,380.11"/>
	<path style="fill:#29388F;" d="M507.04,344.36c0-2.8,2.17-5.01,4.91-5.01h1.02c2.36,0,3.76,1.17,5.1,2.93l18.94,25.35v-23.46
		c0-2.73,2.17-4.94,4.85-4.94s4.85,2.21,4.85,4.94v36.2c0,2.8-2.17,5.01-4.91,5.01h-0.32c-2.36,0-3.76-1.17-5.1-2.93l-19.65-26.26
		v24.38c0,2.73-2.17,4.94-4.85,4.94c-2.68,0-4.85-2.21-4.85-4.94L507.04,344.36L507.04,344.36z"/>
	<path style="fill:#29388F;" d="M568.19,362.5v-0.13c0-12.93,9.57-23.53,23.28-23.53c6.69,0,11.22,1.82,14.92,4.61
		c1.02,0.78,1.91,2.21,1.91,3.96c0,2.73-2.17,4.88-4.85,4.88c-1.34,0-2.23-0.52-2.93-0.97c-2.74-2.08-5.61-3.25-9.12-3.25
		c-7.52,0-12.94,6.37-12.94,14.17v0.13c0,7.8,5.29,14.3,12.94,14.3c4.15,0,6.89-1.3,9.69-3.58c0.76-0.65,1.78-1.11,2.93-1.11
		c2.49,0,4.59,2.08,4.59,4.62c0,1.56-0.76,2.79-1.66,3.57c-4.02,3.58-8.73,5.72-15.88,5.72C577.95,385.9,568.19,375.56,568.19,362.5
		"/>
	<path style="fill:#29388F;" d="M629.98,380.11v-35.49c0-2.79,2.17-5,4.91-5h24.74c2.42,0,4.4,2.01,4.4,4.48s-1.98,4.42-4.4,4.42
		h-19.9v9.23h17.03c2.42,0,4.4,2.01,4.4,4.49c0,2.47-1.98,4.42-4.4,4.42h-17.03v9.55h20.21c2.42,0,4.4,2.01,4.4,4.49
		c0,2.47-1.98,4.42-4.4,4.42h-25.06C632.15,385.12,629.98,382.91,629.98,380.11"/>
	<path style="fill:#4F4B4C;" d="M718.3,341.89c0-1.43,1.15-2.6,2.49-2.6c1.4,0,2.55,1.17,2.55,2.6v17.94h25.76v-17.94
		c0-1.43,1.15-2.6,2.55-2.6c1.34,0,2.49,1.17,2.49,2.6v40.95c0,1.43-1.15,2.6-2.49,2.6c-1.4,0-2.55-1.17-2.55-2.6v-18.2h-25.76v18.2
		c0,1.43-1.15,2.6-2.55,2.6c-1.34,0-2.49-1.17-2.49-2.6V341.89z"/>
	<path style="fill:#4F4B4C;" d="M817.84,362.5v-0.13c0-10.34-7.4-18.79-17.6-18.79s-17.47,8.32-17.47,18.66v0.13
		c0,10.33,7.4,18.78,17.6,18.78C810.58,381.15,817.84,372.83,817.84,362.5 M777.54,362.5v-0.13c0-12.55,9.24-23.53,22.83-23.53
		s22.7,10.85,22.7,23.4v0.13c0,12.54-9.24,23.53-22.83,23.53S777.54,375.04,777.54,362.5"/>
	<path style="fill:#4F4B4C;" d="M855.22,344.36h-12.95c-1.28,0-2.36-1.04-2.36-2.34c0-1.3,1.08-2.4,2.36-2.4h30.99
		c1.28,0,2.36,1.1,2.36,2.4c0,1.3-1.08,2.34-2.36,2.34h-12.94v38.48c0,1.43-1.15,2.6-2.55,2.6c-1.4,0-2.55-1.17-2.55-2.6V344.36z"/>
	<path style="fill:#4F4B4C;" d="M897.5,382.52v-40.3c0-1.43,1.15-2.6,2.49-2.6h27.74c1.28,0,2.3,1.04,2.3,2.34
		c0,1.3-1.02,2.34-2.3,2.34h-25.2v15.53h22.32c1.28,0,2.29,1.1,2.29,2.34c0,1.3-1.02,2.34-2.29,2.34h-22.32v15.93h25.51
		c1.28,0,2.29,1.04,2.29,2.34c0,1.3-1.02,2.34-2.29,2.34h-28.06C898.64,385.12,897.5,383.95,897.5,382.52"/>
	<path style="fill:#4F4B4C;" d="M952.97,341.89c0-1.43,1.15-2.6,2.49-2.6c1.41,0,2.55,1.17,2.55,2.6v38.48h23.15
		c1.28,0,2.3,1.11,2.3,2.41s-1.02,2.34-2.3,2.34h-25.7c-1.34,0-2.49-1.17-2.49-2.6L952.97,341.89L952.97,341.89z"/>
	<path style="fill:#29388F;" d="M236.82,440.15c-0.24-0.17-0.41-0.47-0.41-0.83c0-0.61,0.46-1.08,1.04-1.08
		c0.27,0,0.52,0.11,0.66,0.25c1.8,1.56,3.6,2.31,6.03,2.31c2.56,0,4.25-1.39,4.25-3.31v-0.05c0-1.81-0.95-2.84-4.96-3.7
		c-4.39-0.97-6.41-2.42-6.41-5.62v-0.06c0-3.06,2.65-5.31,6.27-5.31c2.51,0,4.34,0.64,6.08,1.92c0.22,0.17,0.46,0.47,0.46,0.89
		c0,0.58-0.46,1.06-1.04,1.06c-0.24,0-0.44-0.05-0.63-0.19c-1.61-1.2-3.16-1.7-4.94-1.7c-2.48,0-4.06,1.39-4.06,3.14v0.05
		c0,1.84,0.98,2.87,5.18,3.78c4.25,0.95,6.22,2.53,6.22,5.51v0.06c0,3.34-2.73,5.51-6.52,5.51
		C241.26,442.77,238.95,441.88,236.82,440.15"/>
	<path style="fill:#29388F;" d="M277.57,424c0-0.61,0.49-1.11,1.06-1.11c0.6,0,1.09,0.5,1.09,1.11v17.52c0,0.61-0.49,1.11-1.09,1.11
		c-0.57,0-1.06-0.5-1.06-1.11V424z"/>
	<path style="fill:#29388F;" d="M307.74,424c0-0.61,0.49-1.11,1.06-1.11c0.6,0,1.09,0.5,1.09,1.11v7.68h11.02V424
		c0-0.61,0.49-1.11,1.09-1.11c0.57,0,1.06,0.5,1.06,1.11v17.52c0,0.61-0.49,1.11-1.06,1.11c-0.6,0-1.09-0.5-1.09-1.11v-7.79h-11.02
		v7.79c0,0.61-0.49,1.11-1.09,1.11c-0.57,0-1.06-0.5-1.06-1.11V424z"/>
	<path style="fill:#29388F;" d="M363.22,435.34l-4.39-9.95l-4.39,9.95H363.22z M349.72,441.04l7.75-17.27
		c0.27-0.61,0.68-0.97,1.36-0.97h0.11c0.66,0,1.09,0.36,1.34,0.97l7.75,17.24c0.08,0.19,0.14,0.39,0.14,0.56
		c0,0.58-0.46,1.06-1.04,1.06c-0.52,0-0.87-0.36-1.06-0.81l-1.99-4.48h-10.47l-1.99,4.53c-0.19,0.47-0.55,0.75-1.04,0.75
		c-0.55,0-0.98-0.45-0.98-1C349.58,441.46,349.61,441.26,349.72,441.04"/>
	<path style="fill:#29388F;" d="M394.7,424.02c0-0.58,0.49-1.08,1.06-1.08h0.3c0.49,0,0.79,0.25,1.09,0.64l11.59,15.07v-14.68
		c0-0.58,0.46-1.08,1.06-1.08c0.57,0,1.04,0.5,1.04,1.08v17.58c0,0.58-0.41,1.03-0.98,1.03h-0.11c-0.46,0-0.79-0.28-1.12-0.67
		l-11.83-15.43v15.07c0,0.58-0.46,1.08-1.06,1.08c-0.57,0-1.04-0.5-1.04-1.08V424.02z"/>
	<path style="fill:#29388F;" d="M455.07,432.81v-0.05c0-4.42-3.16-8.04-7.53-8.04c-4.36,0-7.47,3.56-7.47,7.98v0.06
		c0,4.42,3.16,8.04,7.53,8.04C451.96,440.79,455.07,437.23,455.07,432.81 M437.83,432.81v-0.05c0-5.37,3.96-10.07,9.76-10.07
		c5.81,0,9.71,4.64,9.71,10.01v0.06c0,5.37-3.95,10.07-9.76,10.07C441.73,442.82,437.83,438.18,437.83,432.81"/>
	<path style="fill:#29388F;" d="M483.98,434.34v-10.35c0-0.61,0.49-1.11,1.06-1.11c0.6,0,1.09,0.5,1.09,1.11v10.21
		c0,4.2,2.21,6.56,5.84,6.56c3.52,0,5.75-2.17,5.75-6.42v-10.35c0-0.61,0.49-1.11,1.09-1.11c0.57,0,1.06,0.5,1.06,1.11v10.18
		c0,5.67-3.19,8.62-7.96,8.62C487.2,442.79,483.98,439.85,483.98,434.34"/>
	<path style="fill:#29388F;" d="M527.41,424c0-0.61,0.49-1.11,1.06-1.11c0.6,0,1.09,0.5,1.09,1.11v10.65l10.88-11.37
		c0.25-0.22,0.49-0.39,0.85-0.39c0.57,0,1.04,0.53,1.04,1.08c0,0.31-0.14,0.56-0.36,0.78l-6.76,6.84l7.25,9.12
		c0.19,0.25,0.3,0.47,0.3,0.8c0,0.58-0.49,1.11-1.09,1.11c-0.41,0-0.68-0.22-0.87-0.5l-7.12-9.04l-4.12,4.2v4.23
		c0,0.61-0.49,1.11-1.09,1.11c-0.57,0-1.06-0.5-1.06-1.11L527.41,424L527.41,424z"/>
	<path style="fill:#29388F;" d="M574.74,441.79l-7.36-17.33c-0.08-0.17-0.11-0.31-0.11-0.5c0-0.56,0.49-1.08,1.09-1.08
		c0.55,0,0.93,0.36,1.12,0.83l6.6,16.13l6.63-16.19c0.19-0.39,0.57-0.78,1.06-0.78c0.6,0,1.06,0.5,1.06,1.06
		c0,0.17-0.03,0.31-0.08,0.45l-7.39,17.41c-0.24,0.56-0.63,0.92-1.25,0.92H576C575.36,442.71,574.96,442.35,574.74,441.79"/>
	<path style="fill:#29388F;" d="M611.51,424c0-0.61,0.49-1.11,1.06-1.11c0.6,0,1.09,0.5,1.09,1.11v17.52c0,0.61-0.49,1.11-1.09,1.11
		c-0.57,0-1.06-0.5-1.06-1.11V424z"/>
	<path style="fill:#29388F;" d="M641.68,424c0-0.61,0.49-1.11,1.06-1.11c0.6,0,1.09,0.5,1.09,1.11v16.46h9.9
		c0.55,0,0.98,0.47,0.98,1.03c0,0.55-0.43,1-0.98,1h-10.99c-0.57,0-1.06-0.5-1.06-1.11L641.68,424L641.68,424z"/>
	<path style="fill:#29388F;" d="M680.98,424c0-0.61,0.49-1.11,1.06-1.11c0.6,0,1.09,0.5,1.09,1.11v16.46h9.9
		c0.55,0,0.98,0.47,0.98,1.03c0,0.55-0.43,1-0.98,1h-10.99c-0.57,0-1.06-0.5-1.06-1.11L680.98,424L680.98,424z"/>
	<path style="fill:#29388F;" d="M720.29,441.38v-17.24c0-0.61,0.49-1.11,1.06-1.11h11.86c0.54,0,0.98,0.45,0.98,1
		c0,0.56-0.44,1-0.98,1h-10.77v6.65h9.55c0.54,0,0.98,0.47,0.98,1c0,0.56-0.44,1-0.98,1h-9.55v6.81h10.91c0.55,0,0.98,0.44,0.98,1
		c0,0.55-0.44,1-0.98,1h-12C720.78,442.49,720.29,441.99,720.29,441.38"/>
</g>
</svg>
